<svg xmlns="http://www.w3.org/2000/svg" width="21" height="20" viewBox="0 0 21 20" fill="none">
<path d="M9.73753 1.27885C10.0813 0.462389 11.252 0.46239 11.5958 1.27885L13.6245 6.09774C13.7695 6.44194 14.0972 6.67711 14.4733 6.7069L19.7393 7.12398C20.6315 7.19465 20.9933 8.29464 20.3135 8.8699L16.3014 12.2652C16.0149 12.5077 15.8897 12.8883 15.9772 13.2508L17.203 18.3275C17.4107 19.1876 16.4635 19.8675 15.6997 19.4066L11.1912 16.6861C10.8692 16.4917 10.4642 16.4917 10.1421 16.6861L5.63365 19.4066C4.86977 19.8675 3.92261 19.1876 4.13029 18.3275L5.35608 13.2508C5.44363 12.8883 5.31848 12.5077 5.03191 12.2652L1.01972 8.8699C0.339939 8.29464 0.701724 7.19465 1.59395 7.12398L6.86001 6.7069C7.23616 6.67711 7.56381 6.44194 7.70872 6.09774L9.73753 1.27885Z" fill="#F9B811"/>
</svg>