<svg xmlns="http://www.w3.org/2000/svg" width="20" height="20" viewBox="0 0 20 20" fill="none">
<path d="M9.07069 1.05668C9.41444 0.240221 10.5852 0.240222 10.9289 1.05668L12.9577 5.87557C13.1027 6.21977 13.4304 6.45495 13.8065 6.48474L19.0725 6.90181C19.9647 6.97248 20.3265 8.07247 19.6467 8.64774L15.6346 12.043C15.348 12.2856 15.2228 12.6661 15.3104 13.0287L16.5361 18.1053C16.7438 18.9654 15.7967 19.6453 15.0328 19.1844L10.5244 16.4639C10.2023 16.2696 9.79732 16.2696 9.47529 16.4639L4.96681 19.1844C4.20293 19.6453 3.25577 18.9654 3.46345 18.1053L4.68924 13.0287C4.77679 12.6661 4.65164 12.2856 4.36507 12.043L0.352879 8.64774C-0.326901 8.07247 0.0348848 6.97248 0.927108 6.90181L6.19317 6.48474C6.56932 6.45495 6.89697 6.21977 7.04188 5.87557L9.07069 1.05668Z" fill="#B0B0B0"/>
</svg>